<svg xmlns="http://www.w3.org/2000/svg" viewBox="0 0 64 64"><defs><style>.cls-1{fill:#93e6e5;}.cls-2{fill:#00bebd;}.cls-3{fill:#f3f3f3;}.cls-4{fill:#d9d9d9;}.cls-5{fill:#ffac00;}</style></defs><title>Resize</title><g id="Resize"><rect class="cls-1" x="3" y="32" width="29" height="30"/><path class="cls-2" d="M3,55l9.59-9.59a2,2,0,0,1,2.82,0l1.18,1.18a2,2,0,0,0,2.82,0l5.18-5.18a2,2,0,0,1,2.82,0L32,46V61H3Z"/><path class="cls-3" d="M2,12v4H4V12ZM12,2V4h4V2ZM24,2V4H39V2ZM47,2V4h4V2ZM60,12v4h2V12Zm0,12V40h2V24Zm0,24v4h2V48Zm0,6v6H53v2h9V54ZM41,60v2h4V60ZM33,31H4V24H2V62H39V60H33ZM31,60H4V33H31Zm16,0v2h4V60ZM60,42v4h2V42Zm0-24v4h2V18ZM53,2V4h7v6h2V2ZM41,2V4h4V2ZM18,2V4h4V2ZM2,2v8H4V4h6V2ZM2,18v4H4V18Z"/><rect class="cls-4" x="29" width="6" height="6" rx="1"/><rect class="cls-4" width="6" height="6" rx="1"/><rect class="cls-4" x="58" width="6" height="6" rx="1"/><rect class="cls-5" x="29" y="58" width="6" height="6" rx="1"/><rect class="cls-5" y="58" width="6" height="6" rx="1"/><rect class="cls-4" x="58" y="58" width="6" height="6" rx="1"/><rect class="cls-5" y="29" width="6" height="6" rx="1"/><rect class="cls-5" x="29" y="29" width="6" height="6" rx="1"/><rect class="cls-4" x="58" y="29" width="6" height="6" rx="1"/><circle class="cls-5" cx="9" cy="40" r="3"/><path class="cls-4" d="M55,11V9H53a1,1,0,0,1,0-2h3a1,1,0,0,1,1,1v3A1,1,0,0,1,55,11Z"/><path class="cls-4" d="M40,28H37a1,1,0,0,1-1-1V24a1,1,0,0,1,2,0v2h2A1,1,0,0,1,40,28Z"/><path class="cls-4" d="M37,28a1,1,0,0,1-.71-1.71l19-19a1,1,0,0,1,1.42,1.42C36.21,29.2,37.62,28,37,28Z"/><rect class="cls-3" x="9" y="9" width="10" height="2"/><rect class="cls-3" x="9" y="13" width="15" height="2"/></g></svg>